# xmcd
#
# Track frame offsets:
#	150
#	450
#	750
#	1050
#	1350
#	1650
#	1950
#	2250
#	2550
#	2850
#	3150
#	3450
#	243766
#
# Disc length: 4440 seconds
#
# Revision: 5
# Processed by: cddbd v1.5PL3 Copyright (c) Steve Scherf et al.
# Submitted via: EasyCDDAExtractor 4.6.0.1
#
DISCID=5211560d
DTITLE=Natalie Imbruglia - White Lilies Island
DYEAR=2001
DGENRE=Pop
TTITLE0=That Day
TTITLE1=Beauty On The Fire
TTITLE2=Satellite
TTITLE3=Do You Love
TTITLE4=Wrong Impression
TTITLE5=Goodbye
TTITLE6=Everything Goes
TTITLE7=Hurricane
TTITLE8=Sunlight
TTITLE9=Talk In Tongues
TTITLE10=Butterflies
TTITLE11=Come September
TTITLE12=Data Track
EXTD=ID3G: 87
EXTT0=
EXTT1=
EXTT2=
EXTT3=
EXTT4=
EXTT5=
EXTT6=
EXTT7=
EXTT8=
EXTT9=
EXTT10=
EXTT11=
EXTT12=
PLAYORDER=
